# xmcd CD database file
#
# Track frame offsets:
#	150
#	13998
#	28320
#	42949
#	58552
#	73460
#	88840
#	101212
#	117067
#	132336
#	145850
#	159308
#	173463
#	186169
#	199544
#	215064
#	226600
#	239807
#	255132
#	268897
#
# Disc length: 3789 seconds
#
# Revision: 0
# Processed by: cddbd v1.5.1PL2 Copyright (c) Steve Scherf et al.
# Submitted via: CDex 1.51
#
DISCID=250ecb14
DTITLE=Louis Armstrong - 10 Jazz Legends Vol 1 CD 4
DYEAR=1900
DGENRE=Jazz
TTITLE0=Cornet Shop Suey
TTITLE1=Willie the Weeper
TTITLE2=Wild Man Blues
TTITLE3=Savoy Blues
TTITLE4=Basin Street Blues
TTITLE5=No one else but you
TTITLE6=Weather Bird Rag
TTITLE7=I can't give you anything but love
TTITLE8=Mahogany Hall Stomp
TTITLE9=St Louis Blues
TTITLE10=Struttin' with some barbecue
TTITLE11=Nobody knows the troubles I've seen
TTITLE12=Blues
TTITLE13=Do you know what it means to miss New Orleans
TTITLE14=Sugar
TTITLE15=I wonder, I wonder, I wonder
TTITLE16=Blueberry Hill
TTITLE17=La vie en rose
TTITLE18=C'est si bon
TTITLE19=I get ideas
EXTD=
EXTT0=
EXTT1=
EXTT2=
EXTT3=
EXTT4=
EXTT5=
EXTT6=
EXTT7=
EXTT8=
EXTT9=
EXTT10=
EXTT11=
EXTT12=
EXTT13=
EXTT14=
EXTT15=
EXTT16=
EXTT17=
EXTT18=
EXTT19=
PLAYORDER=
